<svg width="478" height="342" viewBox="0 0 478 342" fill="none" xmlns="http://www.w3.org/2000/svg">
<g clip-path="url(#clip0_1_7)">
<path d="M19.2 51.6715H91.2V226.872H184.4V279.672H19.2V51.6715Z" fill="black"/>
<path d="M231.107 218.173C240.174 218.171 248.042 221.236 254.713 227.368C261.116 233.501 264.321 240.833 264.326 249.367C264.332 257.9 261.136 265.234 254.74 271.368C248.077 277.503 240.212 280.571 231.146 280.573C222.079 280.574 214.344 277.509 207.94 271.377C201.536 265.245 198.332 257.912 198.326 249.379C198.321 240.845 201.516 233.511 207.913 227.377C214.309 221.242 222.04 218.174 231.107 218.173ZM265.493 195.366L197.093 195.379L196.978 11.379L265.378 11.3665L265.493 195.366Z" fill="black"/>
<path d="M417.6 279.672H345.6V101.672H281.2V51.6715H482V101.672H417.6V279.672Z" fill="black"/>
</g>
<defs>
<clipPath id="clip0_1_7">
<rect width="478" height="342" fill="white"/>
</clipPath>
</defs>
</svg>
